<svg width="45" height="45" viewBox="0 0 45 45" fill="none" xmlns="http://www.w3.org/2000/svg">
<path d="M19.9904 17.426C21.0405 16.8811 22.2358 16.6812 23.4062 16.8547C24.6 17.0317 25.7052 17.588 26.5585 18.4414C27.4119 19.2948 27.9682 20.4 28.1452 21.5938C28.3188 22.7641 28.1189 23.9594 27.5739 25.0096C27.029 26.0598 26.1668 26.9114 25.11 27.4433C24.0532 27.9753 22.8555 28.1604 21.6874 27.9724C20.5193 27.7845 19.4402 27.233 18.6036 26.3964C17.767 25.5597 17.2155 24.4806 17.0275 23.3125C16.8395 22.1444 17.0247 20.9468 17.5566 19.8899C18.0885 18.8331 18.9402 17.9709 19.9904 17.426Z" fill="white"/>
<path fill-rule="evenodd" clip-rule="evenodd" d="M13.125 5.625C8.98286 5.625 5.625 8.98286 5.625 13.125V31.875C5.625 36.0171 8.98286 39.375 13.125 39.375H31.875C36.0171 39.375 39.375 36.0171 39.375 31.875V13.125C39.375 8.98286 36.0171 5.625 31.875 5.625H13.125ZM32.8124 10.3125C31.7769 10.3125 30.9374 11.152 30.9374 12.1875C30.9374 13.223 31.7769 14.0625 32.8124 14.0625H32.8312C33.8667 14.0625 34.7062 13.223 34.7062 12.1875C34.7062 11.152 33.8667 10.3125 32.8312 10.3125H32.8124ZM23.9562 13.1453C22.0056 12.856 20.0135 13.1892 18.2632 14.0974C16.5129 15.0056 15.0935 16.4426 14.207 18.204C13.3204 19.9653 13.0119 21.9614 13.3251 23.9083C13.6384 25.8551 14.5576 27.6537 15.9519 29.048C17.3463 30.4423 19.1448 31.3615 21.0917 31.6748C23.0385 31.9881 25.0346 31.6795 26.796 30.793C28.5573 29.9064 29.9943 28.487 30.9025 26.7367C31.8107 24.9864 32.1439 22.9943 31.8547 21.0437C31.5596 19.0541 30.6325 17.212 29.2102 15.7897C27.7879 14.3675 25.9459 13.4403 23.9562 13.1453Z" fill="white"/>
</svg>
