<?xml version="1.0" encoding="UTF-8"?><svg id="Calque_1" xmlns="http://www.w3.org/2000/svg" viewBox="0 0 782 776"><defs><style>.cls-1{fill:#072448;fill-rule:evenodd;}</style></defs><path class="cls-1" d="M547.9.2H234.24C105,.2.24,104.97.24,234.2v307.68c0,129.23,104.77,234,234,234h313.66c129.24,0,234-104.77,234-234V234.2C781.9,104.97,677.13.2,547.9.2ZM391.52,188.12c-113.09,0-204.36,91.27-204.36,204.36s91.27,204.36,204.36,204.36,204.36-91.27,204.36-204.36-91.27-204.36-204.36-204.36ZM604.25,132.13c-26.4,0-47.73,21.32-47.73,47.73s21.32,47.73,47.73,47.73,47.73-21.22,47.73-47.73c0-6.27-1.22-12.48-3.62-18.27-2.4-5.79-5.91-11.06-10.34-15.49s-9.7-7.95-15.49-10.34-12-3.62-18.27-3.62ZM391.52,525.3c-73.13,0-132.82-59.68-132.82-132.82s59.68-132.82,132.82-132.82,132.82,59.68,132.82,132.82-59.68,132.82-132.82,132.82Z"/></svg>