<?xml version="1.0" encoding="UTF-8"?><svg id="Calque_1" xmlns="http://www.w3.org/2000/svg" viewBox="0 0 1025 1024"><defs><style>.cls-1{fill:#072448;}</style></defs><path class="cls-1" d="M512.89,295.99c-119.54,0-216.01,96.47-216.01,216.01s96.47,216.01,216.01,216.01,216.01-96.47,216.01-216.01-96.47-216.01-216.01-216.01ZM512.89,652.39c-77.3,0-140.39-63.09-140.39-140.39s63.09-140.39,140.39-140.39,140.39,63.09,140.39,140.39-63.09,140.39-140.39,140.39ZM737.74,236.8c-27.91,0-50.45,22.54-50.45,50.45s22.54,50.45,50.45,50.45,50.45-22.43,50.45-50.45c0-6.63-1.29-13.19-3.82-19.32-2.53-6.12-6.25-11.69-10.93-16.38-4.69-4.69-10.25-8.4-16.38-10.93-6.12-2.53-12.69-3.83-19.32-3.82ZM933.95,512c0-58.14.53-115.75-2.74-173.78-3.27-67.4-18.64-127.23-67.93-176.52-49.4-49.4-109.11-64.67-176.52-67.93-58.14-3.26-115.75-2.74-173.78-2.74s-115.75-.53-173.78,2.74c-67.4,3.26-127.23,18.64-176.51,67.93-49.4,49.4-64.67,109.11-67.93,176.52-3.26,58.14-2.74,115.75-2.74,173.78s-.53,115.75,2.74,173.78c3.26,67.4,18.64,127.23,67.93,176.52,49.39,49.4,109.11,64.67,176.51,67.93,58.14,3.27,115.74,2.74,173.78,2.74s115.75.53,173.78-2.74c67.4-3.26,127.23-18.64,176.52-67.93,49.4-49.39,64.67-109.11,67.93-176.52,3.37-58.03,2.74-115.64,2.74-173.78ZM841.27,760.35c-7.69,19.17-16.96,33.49-31.81,48.24-14.85,14.85-29.07,24.12-48.24,31.81-55.4,22.01-186.94,17.06-248.34,17.06s-193.05,4.95-248.45-16.96c-19.17-7.69-33.49-16.96-48.24-31.81-14.85-14.85-24.12-29.07-31.81-48.24-21.91-55.51-16.96-187.05-16.96-248.45s-4.95-193.05,16.96-248.45c7.69-19.17,16.96-33.49,31.81-48.24,14.85-14.74,29.07-24.12,48.24-31.81,55.4-21.91,187.05-16.96,248.45-16.96s193.05-4.95,248.45,16.96c19.17,7.69,33.49,16.96,48.24,31.81,14.85,14.85,24.12,29.07,31.81,48.24,21.91,55.4,16.96,187.05,16.96,248.45s4.95,192.95-17.06,248.35Z"/></svg>