<svg width="45" height="45" viewBox="0 0 45 45" fill="none" xmlns="http://www.w3.org/2000/svg">
<path d="M22.5 14.0625C20.8312 14.0625 19.1999 14.5574 17.8124 15.4845C16.4248 16.4116 15.3434 17.7294 14.7048 19.2711C14.0662 20.8129 13.8991 22.5094 14.2246 24.1461C14.5502 25.7828 15.3538 27.2862 16.5338 28.4662C17.7138 29.6462 19.2172 30.4498 20.8539 30.7754C22.4906 31.1009 24.1871 30.9338 25.7289 30.2952C27.2706 29.6566 28.5884 28.5752 29.5155 27.1876C30.4426 25.8001 30.9375 24.1688 30.9375 22.5C30.9352 20.263 30.0455 18.1182 28.4636 16.5364C26.8818 14.9545 24.737 14.0648 22.5 14.0625ZM22.5 28.125C21.3875 28.125 20.2999 27.7951 19.3749 27.177C18.4499 26.5589 17.7289 25.6804 17.3032 24.6526C16.8774 23.6248 16.766 22.4938 16.9831 21.4026C17.2001 20.3115 17.7359 19.3092 18.5225 18.5225C19.3092 17.7359 20.3115 17.2001 21.4026 16.9831C22.4938 16.766 23.6248 16.8774 24.6526 17.3032C25.6804 17.7289 26.5589 18.4499 27.177 19.3749C27.7951 20.2999 28.125 21.3875 28.125 22.5C28.125 23.9918 27.5324 25.4226 26.4775 26.4775C25.4226 27.5324 23.9918 28.125 22.5 28.125ZM30.9375 4.21875H14.0625C11.4526 4.22154 8.95046 5.25954 7.105 7.105C5.25954 8.95046 4.22154 11.4526 4.21875 14.0625V30.9375C4.22154 33.5474 5.25954 36.0495 7.105 37.895C8.95046 39.7405 11.4526 40.7785 14.0625 40.7812H30.9375C33.5474 40.7785 36.0495 39.7405 37.895 37.895C39.7405 36.0495 40.7785 33.5474 40.7812 30.9375V14.0625C40.7785 11.4526 39.7405 8.95046 37.895 7.105C36.0495 5.25954 33.5474 4.22154 30.9375 4.21875ZM37.9688 30.9375C37.9688 32.8023 37.228 34.5907 35.9093 35.9093C34.5907 37.228 32.8023 37.9688 30.9375 37.9688H14.0625C12.1977 37.9688 10.4093 37.228 9.09066 35.9093C7.77204 34.5907 7.03125 32.8023 7.03125 30.9375V14.0625C7.03125 12.1977 7.77204 10.4093 9.09066 9.09066C10.4093 7.77204 12.1977 7.03125 14.0625 7.03125H30.9375C32.8023 7.03125 34.5907 7.77204 35.9093 9.09066C37.228 10.4093 37.9688 12.1977 37.9688 14.0625V30.9375ZM33.75 13.3594C33.75 13.7766 33.6263 14.1844 33.3945 14.5313C33.1627 14.8782 32.8333 15.1485 32.4478 15.3082C32.0624 15.4678 31.6383 15.5096 31.2291 15.4282C30.8199 15.3468 30.4441 15.1459 30.1491 14.8509C29.8541 14.5559 29.6532 14.1801 29.5718 13.7709C29.4904 13.3617 29.5322 12.9376 29.6918 12.5522C29.8515 12.1667 30.1218 11.8373 30.4687 11.6055C30.8156 11.3737 31.2234 11.25 31.6406 11.25C32.2001 11.25 32.7366 11.4722 33.1322 11.8678C33.5278 12.2634 33.75 12.7999 33.75 13.3594Z" fill="white"/>
</svg>
