<svg width="45" height="45" viewBox="0 0 45 45" fill="none" xmlns="http://www.w3.org/2000/svg">
<path d="M28.3594 39.5625L12.5625 23.8125C12.375 23.625 12.2419 23.4219 12.1632 23.2031C12.0844 22.9844 12.0457 22.75 12.0469 22.5C12.0469 22.25 12.0857 22.0156 12.1632 21.7969C12.2407 21.5781 12.3738 21.375 12.5625 21.1875L28.3594 5.39062C28.7969 4.95312 29.3438 4.73438 30 4.73438C30.6563 4.73438 31.2188 4.96875 31.6875 5.4375C32.1563 5.90625 32.3907 6.45312 32.3907 7.07812C32.3907 7.70312 32.1563 8.25 31.6875 8.71875L17.9063 22.5L31.6875 36.2812C32.125 36.7187 32.3438 37.2581 32.3438 37.8994C32.3438 38.5406 32.1094 39.095 31.6407 39.5625C31.1719 40.0312 30.625 40.2656 30 40.2656C29.375 40.2656 28.8282 40.0312 28.3594 39.5625Z" fill="#FDFDFD"/>
</svg>
