<svg width="217" height="286" viewBox="0 0 217 286" fill="none" xmlns="http://www.w3.org/2000/svg">
<path d="M23.8508 92.3431L120.816 241.656L124.35 247.098L118.198 251.094C120.362 258.57 125.246 263.674 127.418 265.291L133.57 261.296C141.868 274.074 169.737 299.374 201.872 275.814C227.58 256.966 214.612 225.151 204.915 211.6L210.594 207.912C210.616 200.9 203.125 193.474 199.376 190.638L193.697 194.326L94.7346 41.9371L100.414 38.2491C101.269 29.6195 94.7258 25.346 91.3473 24.288L85.6682 27.976C59.1392 -4.58635 46.4008 -6.0702 14.0656 14.5921C-11.8026 31.1219 5.54052 63.9754 17.4456 78.3359C15.3046 78.4927 10.6983 79.7571 9.40032 83.5606C8.10236 87.364 14.3916 93.6639 17.6984 96.3385L23.8508 92.3431Z" fill="#5AC4FF"/>
</svg>
