<svg width="218" height="285" viewBox="0 0 218 285" fill="none" xmlns="http://www.w3.org/2000/svg">
<path d="M23.967 91.7087L120.932 241.021L124.466 246.464L118.314 250.459C120.478 257.936 125.362 263.04 127.534 264.657L133.686 260.662C141.984 273.44 169.853 298.74 201.988 275.18C227.696 256.332 214.729 224.517 205.031 210.966L210.71 207.278C210.732 200.266 203.241 192.84 199.492 190.004L193.813 193.692L94.8508 41.3027L100.53 37.6147C101.385 28.9851 94.842 24.7116 91.4635 23.6536L85.7844 27.3416C59.2554 -5.22075 46.517 -6.70459 14.1818 13.9577C-11.6863 30.4875 5.65673 63.341 17.5618 77.7015C15.4209 77.8583 10.8145 79.1227 9.51653 82.9262C8.21857 86.7296 14.5078 93.0295 17.8146 95.7041L23.967 91.7087Z" fill="#EE5353"/>
</svg>
